<svg width="40" height="33" viewBox="0 0 40 33" fill="none" xmlns="http://www.w3.org/2000/svg">
<path d="M36.7574 3.41901C37.3869 3.92562 37.8619 4.53846 38.1464 5.21111C38.4308 5.88376 38.5172 6.59858 38.3991 7.30144C38.2809 8.0043 37.9613 8.67675 37.4644 9.26788C36.9675 9.85901 36.3064 10.3533 35.5312 10.7133C29.9424 13.302 23.4209 14.3553 16.9901 13.7081C10.5593 13.061 4.5833 10.7498 0 7.13751L8.27206 0.485229C11.0111 2.64257 14.5783 4.02629 18.4188 4.42113C22.2593 4.81598 26.1577 4.19981 29.5078 2.66847C30.6481 2.13908 31.9802 1.9247 33.2927 2.05931C34.6053 2.19392 35.8232 2.66982 36.7536 3.41158L36.7574 3.41901Z" fill="#B3E0BB"/>
<path d="M36.7213 3.38926C35.6127 2.51628 34.1094 2.02588 32.5419 2.02588C30.9744 2.02588 29.4711 2.51628 28.3625 3.38926L3.27278 23.1559C2.1647 24.0293 1.54224 25.2137 1.54224 26.4486C1.54224 27.6835 2.1647 28.8678 3.27278 29.7413V29.7413C3.82147 30.1739 4.473 30.5171 5.19013 30.7512C5.90725 30.9854 6.67592 31.1059 7.45219 31.1059C8.22846 31.1059 8.99713 30.9854 9.71425 30.7512C10.4314 30.5171 11.0829 30.1739 11.6316 29.7413L36.7213 9.97467C37.2704 9.54238 37.706 9.02908 38.0032 8.4641C38.3004 7.89912 38.4534 7.29354 38.4534 6.68196C38.4534 6.07039 38.3004 5.4648 38.0032 4.89983C37.706 4.33485 37.2704 3.82155 36.7213 3.38926Z" fill="url(#paint0_linear_176_141)"/>
<path d="M3.24266 29.7041C2.61302 29.1977 2.1379 28.5851 1.85332 27.9126C1.56875 27.2401 1.48216 26.5255 1.60014 25.8227C1.71811 25.12 2.03755 24.4476 2.53425 23.8565C3.03094 23.2655 3.69187 22.7712 4.46696 22.4112C10.0561 19.8231 16.5776 18.7698 23.0084 19.4167C29.4393 20.0636 35.4157 22.374 40 25.9856L31.7242 32.6393C28.9852 30.482 25.418 29.0983 21.5775 28.7034C17.737 28.3086 13.8385 28.9248 10.4885 30.4561C9.34682 30.9841 8.01414 31.1969 6.70162 31.0607C5.3891 30.9244 4.17181 30.447 3.24266 29.7041Z" fill="#F7C564"/>
<defs>
<linearGradient id="paint0_linear_176_141" x1="35.8922" y1="2.299" x2="4.44175" y2="28.5693" gradientUnits="userSpaceOnUse">
<stop stop-color="#B3E0BB"/>
<stop offset="0.421875" stop-color="#B3E0BB"/>
<stop offset="0.578125" stop-color="#F7C564"/>
<stop offset="1" stop-color="#F7C564"/>
</linearGradient>
</defs>
</svg>
